<?xml version="1.0" encoding="UTF-8" standalone="no"?>
<!-- Created with Inkscape (http://www.inkscape.org/) -->

<svg
   xmlns:dc="http://purl.org/dc/elements/1.1/"
   xmlns:cc="http://creativecommons.org/ns#"
   xmlns:rdf="http://www.w3.org/1999/02/22-rdf-syntax-ns#"
   xmlns:svg="http://www.w3.org/2000/svg"
   xmlns="http://www.w3.org/2000/svg"
   xmlns:sodipodi="http://sodipodi.sourceforge.net/DTD/sodipodi-0.dtd"
   xmlns:inkscape="http://www.inkscape.org/namespaces/inkscape"
   width="170.66701"
   height="256"
   viewBox="0 0 45.155645 67.733332"
   version="1.1"
   id="svg1392"
   inkscape:version="0.92.5 (2060ec1f9f, 2020-04-08)"
   sodipodi:docname="logo.svg">
  <defs
     id="defs1386" />
  <sodipodi:namedview
     id="base"
     pagecolor="#ffffff"
     bordercolor="#666666"
     borderopacity="1.0"
     inkscape:pageopacity="0.0"
     inkscape:pageshadow="2"
     inkscape:zoom="0.5"
     inkscape:cx="242.59335"
     inkscape:cy="-242.84224"
     inkscape:document-units="mm"
     inkscape:current-layer="layer1"
     showgrid="false"
     units="px"
     inkscape:snap-page="true"
     inkscape:snap-grids="true"
     inkscape:window-width="1920"
     inkscape:window-height="986"
     inkscape:window-x="-11"
     inkscape:window-y="-11"
     inkscape:window-maximized="1" />
  <metadata
     id="metadata1389">
    <rdf:RDF>
      <cc:Work
         rdf:about="">
        <dc:format>image/svg+xml</dc:format>
        <dc:type
           rdf:resource="http://purl.org/dc/dcmitype/StillImage" />
        <dc:title></dc:title>
      </cc:Work>
    </rdf:RDF>
  </metadata>
  <g
     inkscape:label="Layer 1"
     inkscape:groupmode="layer"
     id="layer1"
     transform="translate(0,-229.26667)">
    <g
       id="g1962"
       transform="matrix(1.3333334,0,0,1.3333334,-7.137915,-87.364775)"
       style="stroke:none">
      <rect
         y="237.47357"
         x="5.353436"
         height="50.799999"
         width="33.866665"
         id="rect1035"
         style="opacity:1;fill:#dc493a;fill-opacity:1;stroke:none;stroke-width:1.32300007;stroke-linecap:butt;stroke-linejoin:miter;stroke-miterlimit:4;stroke-dasharray:none;stroke-dashoffset:0;stroke-opacity:1;paint-order:markers fill stroke" />
      <text
         id="text1057"
         y="259.34354"
         x="8.0316963"
         style="font-style:normal;font-weight:normal;font-size:16.93333244px;line-height:1.25;font-family:sans-serif;letter-spacing:0px;word-spacing:0px;fill:#f9f9f9;fill-opacity:1;stroke:none;stroke-width:0.26458332"
         xml:space="preserve"><tspan
           style="fill:#f9f9f9;fill-opacity:1;stroke:none;stroke-width:0.26458332"
           y="259.34354"
           x="8.0316963"
           id="tspan1055"
           sodipodi:role="line">A</tspan></text>
      <text
         xml:space="preserve"
         style="font-style:normal;font-weight:normal;font-size:16.93333244px;line-height:1.25;font-family:sans-serif;letter-spacing:0px;word-spacing:0px;fill:#f9f9f9;fill-opacity:1;stroke:none;stroke-width:0.26458332"
         x="25.136948"
         y="276.98331"
         id="text1071"><tspan
           sodipodi:role="line"
           id="tspan1069"
           x="25.136948"
           y="276.98331"
           style="fill:#f9f9f9;fill-opacity:1;stroke:none;stroke-width:0.26458332">R</tspan></text>
      <path
         inkscape:connector-curvature="0"
         d="m 7.9825562,279.6457 c 0.998751,-0.43468 1.955257,-0.96084 2.9134588,-1.47707 0.231235,-0.12666 0.461129,-0.25581 0.693706,-0.37999 0.131953,-0.0705 -0.514739,0.30401 -0.391803,0.21879 0.225361,-0.15623 0.46859,-0.28504 0.699875,-0.43236 0.738577,-0.47044 1.455325,-0.974 2.174969,-1.47253 1.308943,-0.92659 2.559324,-1.93262 3.736355,-3.02135 0.700421,-0.65567 1.37728,-1.34921 1.871501,-2.17634 0.216675,-0.41654 0.396798,-0.8709 0.411739,-1.34688 0.003,-0.0964 -0.007,-0.19271 -0.01056,-0.28907 -0.109126,-0.74979 -0.550689,-1.3025 -1.075017,-1.81728 -0.362764,-0.3479 -0.767122,-0.65017 -1.220597,-0.86971 -0.269729,-0.13058 -0.428513,-0.18006 -0.710517,-0.28262 -0.877218,-0.31736 -1.794028,-0.46357 -2.71595,-0.57505 -0.948143,-0.12009 -1.903844,-0.15909 -2.853079,-0.26777 -0.372925,-0.0473 -0.195657,-0.0245 -0.531818,-0.0681 0,0 1.124424,-0.79289 1.124424,-0.79289 v 0 c 0.324477,0.0505 0.153336,0.0245 0.513487,0.0775 0.939832,0.11952 1.886347,0.17281 2.826904,0.28639 0.935064,0.1138 1.865579,0.26135 2.754608,0.58619 0.287796,0.10789 0.449467,0.15971 0.724284,0.2975 0.460372,0.23081 0.867034,0.5485 1.238218,0.90298 0.548995,0.54672 0.995114,1.11424 1.138039,1.89642 0.0073,0.10162 0.02167,0.20297 0.02201,0.30485 0.0016,0.49512 -0.178552,0.97014 -0.396206,1.40625 -0.05795,0.1013 -0.110659,0.20579 -0.173847,0.30392 -0.470345,0.73042 -1.125725,1.32847 -1.739551,1.93295 -0.391006,0.36119 -0.678669,0.63454 -1.088154,0.98051 -0.860801,0.72729 -1.763202,1.40665 -2.673408,2.07012 -0.71552,0.49781 -1.427711,1.00207 -2.1608,1.474 -0.822753,0.52965 -1.623384,0.98043 -2.490266,1.47571 -0.230149,0.13149 -0.464976,0.25463 -0.6974638,0.38195 -0.991908,0.53526 -1.983027,1.07545 -3.010121,1.54119 0,0 1.095555,-0.86821 1.095555,-0.86821 z"
         id="path1093"
         style="opacity:1;fill:#f9f9f9;fill-opacity:1;stroke:none;stroke-width:1.32300007;stroke-linecap:butt;stroke-linejoin:miter;stroke-miterlimit:4;stroke-dasharray:none;stroke-dashoffset:0;stroke-opacity:1;paint-order:markers fill stroke" />
      <path
         inkscape:connector-curvature="0"
         d="m 32.915035,245.86243 c 0.349128,-0.19913 0.693759,-0.40638 1.04739,-0.5974 0.07489,-0.0404 -0.141642,0.0946 -0.210121,0.14512 -0.08481,0.0626 -0.167341,0.12831 -0.249579,0.19428 -0.34009,0.27282 -0.656977,0.56771 -0.974649,0.866 -0.868008,0.80334 -1.680194,1.66722 -2.41549,2.59341 -0.569196,0.75048 -1.076582,1.54123 -1.485916,2.38949 -0.292592,0.6396 -0.486164,1.31796 -0.611423,2.00853 -0.113723,0.62261 -0.07977,1.25263 -0.02998,1.87913 0.05914,0.63716 0.175125,1.26611 0.41459,1.8605 0.218053,0.39169 0.559691,0.77087 1.030805,0.83108 0.0979,0.0125 0.197353,0.003 0.296029,0.005 0.112369,-0.0196 0.22656,-0.0308 0.337109,-0.0589 0.260193,-0.0662 0.619754,-0.21405 0.863053,-0.30488 0.570555,-0.213 1.136353,-0.434 1.701339,-0.66147 0.441627,-0.1748 0.874607,-0.37009 1.309627,-0.56041 0,0 -1.058879,0.83725 -1.058879,0.83725 v 0 c -0.425611,0.18089 -0.850209,0.36435 -1.280787,0.53327 -0.570741,0.22784 -1.141449,0.45452 -1.717011,0.66997 -0.283115,0.10598 -0.602515,0.23671 -0.902534,0.29875 -0.118062,0.0244 -0.239511,0.0278 -0.359267,0.0417 -0.106309,-0.01 -0.214381,-0.007 -0.318934,-0.0285 -0.498115,-0.10234 -0.856051,-0.51567 -1.092149,-0.93755 -0.242287,-0.60739 -0.365324,-1.24885 -0.429257,-1.89894 -0.05359,-0.63637 -0.09998,-1.27633 0.01336,-1.91006 0.123113,-0.70301 0.315206,-1.39507 0.608269,-2.04741 0.409604,-0.8638 0.926658,-1.66461 1.501095,-2.4284 0.727641,-0.93018 1.53924,-1.79314 2.395948,-2.60567 0.380447,-0.36736 0.761283,-0.73396 1.17688,-1.06212 0.429445,-0.33909 1.300554,-0.79754 1.529972,-0.93344 0,0 -1.089493,0.88145 -1.089493,0.88145 z"
         id="path1095"
         style="opacity:1;fill:#f9f9f9;fill-opacity:1;stroke:none;stroke-width:1.32300007;stroke-linecap:butt;stroke-linejoin:miter;stroke-miterlimit:4;stroke-dasharray:none;stroke-dashoffset:0;stroke-opacity:1;paint-order:markers fill stroke" />
    </g>
  </g>
</svg>
